<?xml version="1.0" encoding="UTF-8" standalone="no"?>
<svg
   xmlns:dc="http://purl.org/dc/elements/1.1/"
   xmlns:cc="http://creativecommons.org/ns#"
   xmlns:rdf="http://www.w3.org/1999/02/22-rdf-syntax-ns#"
   xmlns:svg="http://www.w3.org/2000/svg"
   xmlns="http://www.w3.org/2000/svg"
   xmlns:sodipodi="http://sodipodi.sourceforge.net/DTD/sodipodi-0.dtd"
   xmlns:inkscape="http://www.inkscape.org/namespaces/inkscape"
   width="1080"
   height="1080"
   viewBox="0 0 1080 1080"
   version="1.1"
   id="svg5"
   inkscape:version="1.0 (4035a4fb49, 2020-05-01)"
   sodipodi:docname="cell-complex.svg"
   xml:space="preserve"
   inkscape:export-filename="C:\Users\joecs\Documents\joe-starr\static\DiscMorse\wedge.png"
   inkscape:export-xdpi="96"
   inkscape:export-ydpi="96"><metadata
     id="metadata1192"><rdf:RDF><cc:Work
         rdf:about=""><dc:format>image/svg+xml</dc:format><dc:type
           rdf:resource="http://purl.org/dc/dcmitype/StillImage" /><dc:title /></cc:Work></rdf:RDF></metadata><sodipodi:namedview
     id="namedview7"
     pagecolor="#505050"
     bordercolor="#eeeeee"
     borderopacity="1"
     inkscape:showpageshadow="0"
     inkscape:pageopacity="0"
     inkscape:pagecheckerboard="0"
     inkscape:deskcolor="#505050"
     inkscape:document-units="px"
     showgrid="false"
     inkscape:zoom="0.6180637"
     inkscape:cx="444.01971"
     inkscape:cy="579.59661"
     inkscape:window-width="1897"
     inkscape:window-height="1144"
     inkscape:window-x="1"
     inkscape:window-y="0"
     inkscape:window-maximized="0"
     inkscape:current-layer="layer1"
     inkscape:document-rotation="0"
     inkscape:snap-global="false" /><defs
     id="defs2"><marker
       inkscape:stockid="CurveIn"
       orient="auto"
       refY="0.0"
       refX="0.0"
       id="CurveIn"
       style="overflow:visible"
       inkscape:isstock="true"><path
         id="path2122"
         d="M 4.6254930,-5.0456926 C 1.8654930,-5.0456926 -0.37450702,-2.8056926 -0.37450702,-0.045692580 C -0.37450702,2.7143074 1.8654930,4.9543074 4.6254930,4.9543074"
         style="fill-rule:evenodd;stroke:#6272a4;stroke-width:1pt;fill:none;stroke-opacity:1"
         transform="scale(0.6)" /></marker><marker
       inkscape:stockid="CurveOut"
       orient="auto"
       refY="0.0"
       refX="0.0"
       id="CurveOut"
       style="overflow:visible"
       inkscape:isstock="true"><path
         id="path2125"
         d="M -5.4129913,-5.0456926 C -2.6529913,-5.0456926 -0.41299131,-2.8056926 -0.41299131,-0.045692580 C -0.41299131,2.7143074 -2.6529913,4.9543074 -5.4129913,4.9543074"
         style="fill:none;fill-rule:evenodd;stroke:#6272a4;stroke-width:1pt;stroke-opacity:1"
         transform="scale(0.6)" /></marker><marker
       inkscape:stockid="DotL"
       orient="auto"
       refY="0.0"
       refX="0.0"
       id="DotL"
       style="overflow:visible"
       inkscape:isstock="true"><path
         id="path1999"
         d="M -2.5,-1.0 C -2.5,1.7600000 -4.7400000,4.0 -7.5,4.0 C -10.260000,4.0 -12.5,1.7600000 -12.5,-1.0 C -12.5,-3.7600000 -10.260000,-6.0 -7.5,-6.0 C -4.7400000,-6.0 -2.5,-3.7600000 -2.5,-1.0 z "
         style="fill-rule:evenodd;stroke:#6272a4;stroke-width:1pt;stroke-opacity:1;fill:#6272a4;fill-opacity:1"
         transform="scale(0.8) translate(7.4, 1)" /></marker><marker
       inkscape:stockid="Arrow1Lend"
       orient="auto"
       refY="0.0"
       refX="0.0"
       id="Arrow1Lend"
       style="overflow:visible;"
       inkscape:isstock="true"><path
         id="path1941"
         d="M 0.0,0.0 L 5.0,-5.0 L -12.5,0.0 L 5.0,5.0 L 0.0,0.0 z "
         style="fill-rule:evenodd;stroke:#f8f8f2;stroke-width:1pt;stroke-opacity:1;fill:#f8f8f2;fill-opacity:1"
         transform="scale(0.8) rotate(180) translate(12.5,0)" /></marker><marker
       inkscape:isstock="true"
       style="overflow:visible"
       id="marker1449"
       refX="0.0"
       refY="0.0"
       orient="auto"
       inkscape:stockid="DotM"><path
         transform="scale(0.4) translate(7.4, 1)"
         style="fill-rule:evenodd;stroke:#000000;stroke-width:1pt;stroke-opacity:1;fill:#000000;fill-opacity:1"
         d="M -2.5,-1.0 C -2.5,1.7600000 -4.7400000,4.0 -7.5,4.0 C -10.260000,4.0 -12.5,1.7600000 -12.5,-1.0 C -12.5,-3.7600000 -10.260000,-6.0 -7.5,-6.0 C -4.7400000,-6.0 -2.5,-3.7600000 -2.5,-1.0 z "
         id="path1447" /></marker><marker
       inkscape:isstock="true"
       style="overflow:visible"
       id="marker1367"
       refX="0.0"
       refY="0.0"
       orient="auto"
       inkscape:stockid="DotM"><path
         transform="scale(0.4) translate(7.4, 1)"
         style="fill-rule:evenodd;stroke:#000000;stroke-width:1pt;stroke-opacity:1;fill:#000000;fill-opacity:1"
         d="M -2.5,-1.0 C -2.5,1.7600000 -4.7400000,4.0 -7.5,4.0 C -10.260000,4.0 -12.5,1.7600000 -12.5,-1.0 C -12.5,-3.7600000 -10.260000,-6.0 -7.5,-6.0 C -4.7400000,-6.0 -2.5,-3.7600000 -2.5,-1.0 z "
         id="path1365" /></marker><marker
       inkscape:stockid="DotM"
       orient="auto"
       refY="0.0"
       refX="0.0"
       id="marker1215"
       style="overflow:visible"
       inkscape:isstock="true"><path
         id="path1213"
         d="M -2.5,-1.0 C -2.5,1.7600000 -4.7400000,4.0 -7.5,4.0 C -10.260000,4.0 -12.5,1.7600000 -12.5,-1.0 C -12.5,-3.7600000 -10.260000,-6.0 -7.5,-6.0 C -4.7400000,-6.0 -2.5,-3.7600000 -2.5,-1.0 z "
         style="fill-rule:evenodd;stroke:#000000;stroke-width:1pt;stroke-opacity:1;fill:#000000;fill-opacity:1"
         transform="scale(0.4) translate(7.4, 1)" /></marker><marker
       inkscape:isstock="true"
       style="overflow:visible"
       id="marker1093"
       refX="0.0"
       refY="0.0"
       orient="auto"
       inkscape:stockid="DotM"><path
         transform="scale(0.4) translate(7.4, 1)"
         style="fill-rule:evenodd;stroke:#000000;stroke-width:1pt;stroke-opacity:1;fill:#000000;fill-opacity:1"
         d="M -2.5,-1.0 C -2.5,1.7600000 -4.7400000,4.0 -7.5,4.0 C -10.260000,4.0 -12.5,1.7600000 -12.5,-1.0 C -12.5,-3.7600000 -10.260000,-6.0 -7.5,-6.0 C -4.7400000,-6.0 -2.5,-3.7600000 -2.5,-1.0 z "
         id="path1091" /></marker><marker
       inkscape:stockid="DotM"
       orient="auto"
       refY="0.0"
       refX="0.0"
       id="marker6160"
       style="overflow:visible"
       inkscape:isstock="true"><path
         id="path6158"
         d="M -2.5,-1.0 C -2.5,1.7600000 -4.7400000,4.0 -7.5,4.0 C -10.260000,4.0 -12.5,1.7600000 -12.5,-1.0 C -12.5,-3.7600000 -10.260000,-6.0 -7.5,-6.0 C -4.7400000,-6.0 -2.5,-3.7600000 -2.5,-1.0 z "
         style="fill-rule:evenodd;stroke:#000000;stroke-width:1pt;stroke-opacity:1;fill:#000000;fill-opacity:1"
         transform="scale(0.4) translate(7.4, 1)" /></marker><marker
       inkscape:isstock="true"
       style="overflow:visible"
       id="marker5984"
       refX="0.0"
       refY="0.0"
       orient="auto"
       inkscape:stockid="DotM"><path
         transform="scale(0.4) translate(7.4, 1)"
         style="fill-rule:evenodd;stroke:#000000;stroke-width:1pt;stroke-opacity:1;fill:#000000;fill-opacity:1"
         d="M -2.5,-1.0 C -2.5,1.7600000 -4.7400000,4.0 -7.5,4.0 C -10.260000,4.0 -12.5,1.7600000 -12.5,-1.0 C -12.5,-3.7600000 -10.260000,-6.0 -7.5,-6.0 C -4.7400000,-6.0 -2.5,-3.7600000 -2.5,-1.0 z "
         id="path5982" /></marker><marker
       inkscape:stockid="DotM"
       orient="auto"
       refY="0.0"
       refX="0.0"
       id="marker5932"
       style="overflow:visible"
       inkscape:isstock="true"><path
         id="path5930"
         d="M -2.5,-1.0 C -2.5,1.7600000 -4.7400000,4.0 -7.5,4.0 C -10.260000,4.0 -12.5,1.7600000 -12.5,-1.0 C -12.5,-3.7600000 -10.260000,-6.0 -7.5,-6.0 C -4.7400000,-6.0 -2.5,-3.7600000 -2.5,-1.0 z "
         style="fill-rule:evenodd;stroke:#000000;stroke-width:1pt;stroke-opacity:1;fill:#000000;fill-opacity:1"
         transform="scale(0.4) translate(7.4, 1)" /></marker><marker
       inkscape:stockid="DotM"
       orient="auto"
       refY="0.0"
       refX="0.0"
       id="marker5256"
       style="overflow:visible"
       inkscape:isstock="true"><path
         id="path5254"
         d="M -2.5,-1.0 C -2.5,1.7600000 -4.7400000,4.0 -7.5,4.0 C -10.260000,4.0 -12.5,1.7600000 -12.5,-1.0 C -12.5,-3.7600000 -10.260000,-6.0 -7.5,-6.0 C -4.7400000,-6.0 -2.5,-3.7600000 -2.5,-1.0 z "
         style="fill-rule:evenodd;stroke:#000000;stroke-width:1pt;stroke-opacity:1;fill:#000000;fill-opacity:1"
         transform="scale(0.4) translate(7.4, 1)" /></marker><marker
       inkscape:isstock="true"
       style="overflow:visible"
       id="marker4870"
       refX="0.0"
       refY="0.0"
       orient="auto"
       inkscape:stockid="DotS"><path
         transform="scale(0.2) translate(7.4, 1)"
         style="fill-rule:evenodd;stroke:#000000;stroke-width:1pt;stroke-opacity:1;fill:#000000;fill-opacity:1"
         d="M -2.5,-1.0 C -2.5,1.7600000 -4.7400000,4.0 -7.5,4.0 C -10.260000,4.0 -12.5,1.7600000 -12.5,-1.0 C -12.5,-3.7600000 -10.260000,-6.0 -7.5,-6.0 C -4.7400000,-6.0 -2.5,-3.7600000 -2.5,-1.0 z "
         id="path4868" /></marker><marker
       inkscape:isstock="true"
       style="overflow:visible"
       id="CurveIn-9"
       refX="0"
       refY="0"
       orient="auto"
       inkscape:stockid="CurveIn"><path
         transform="scale(0.6)"
         style="fill:none;fill-rule:evenodd;stroke:#6272a4;stroke-width:1pt;stroke-opacity:1"
         d="m 4.625493,-5.0456926 c -2.76,0 -5.00000002,2.24 -5.00000002,5.00000002 0,2.75999998 2.24000002,4.99999998 5.00000002,4.99999998"
         id="path2122-8" /></marker><marker
       inkscape:isstock="true"
       style="overflow:visible"
       id="CurveOut-5"
       refX="0"
       refY="0"
       orient="auto"
       inkscape:stockid="CurveOut"><path
         transform="scale(0.6)"
         style="fill:none;fill-rule:evenodd;stroke:#6272a4;stroke-width:1pt;stroke-opacity:1"
         d="m -5.4129913,-5.0456926 c 2.76,0 4.99999999,2.24 4.99999999,5.00000002 0,2.75999998 -2.23999999,4.99999998 -4.99999999,4.99999998"
         id="path2125-6" /></marker></defs><g
     inkscape:groupmode="layer"
     id="layer3"
     inkscape:label="2cells" /><g
     inkscape:groupmode="layer"
     id="layer4"
     inkscape:label="3 cells"><path
       style="fill:none;stroke:#6272a4;stroke-width:8.2;stroke-linecap:butt;stroke-linejoin:miter;stroke-miterlimit:4;stroke-dasharray:none;stroke-opacity:1"
       d="m 925.47095,548.48716 c 41.37687,15.61181 35.70331,106.57552 0,132.67241 -51.63742,37.74373 -182.35127,-57.98549 -182.82905,-58.24643 -2.34074,-1.2784 82.46823,-112.29289 182.82905,-74.42598 z"
       id="path3397"
       sodipodi:nodetypes="ssss" /><path
       sodipodi:nodetypes="ssss"
       id="path3397-7"
       d="m 557.56611,547.04623 c -41.37687,15.61181 -35.70331,106.57552 0,132.67241 51.63742,37.74373 182.35127,-57.98549 182.82905,-58.24643 2.34074,-1.2784 -82.46823,-112.29289 -182.82905,-74.42598 z"
       style="fill:none;stroke:#6272a4;stroke-width:8.2;stroke-linecap:butt;stroke-linejoin:miter;stroke-miterlimit:4;stroke-dasharray:none;stroke-opacity:1" /></g><g
     inkscape:groupmode="layer"
     id="layer2"
     inkscape:label="1cells" /><g
     inkscape:label="0cells"
     inkscape:groupmode="layer"
     id="layer1"><path
       style="fill:#ffb86c;fill-opacity:1;stroke:#ffb86c;stroke-width:3.90125;stroke-linejoin:round;stroke-miterlimit:4;stroke-dasharray:none;stroke-dashoffset:130.744;stroke-opacity:1;paint-order:stroke markers fill"
       id="path1930"
       sodipodi:type="arc"
       sodipodi:cx="737.53082"
       sodipodi:cy="618.87567"
       sodipodi:rx="14.959284"
       sodipodi:ry="14.959369"
       sodipodi:start="3.0896866"
       sodipodi:end="3.0843633"
       sodipodi:open="true"
       sodipodi:arc-type="arc"
       d="m 722.59169,619.6518 a 14.959284,14.959369 0 0 1 14.14312,-15.7143 14.959284,14.959369 0 0 1 15.73303,14.12228 14.959284,14.959369 0 0 1 -14.10125,15.75189 14.959284,14.959369 0 0 1 -15.77056,-14.08035" /><path
       style="fill:#ffb86c;fill-opacity:1;stroke:#ffb86c;stroke-width:5.24572;stroke-linejoin:round;stroke-miterlimit:4;stroke-dasharray:none;stroke-dashoffset:130.744;stroke-opacity:1;paint-order:stroke markers fill"
       id="path1932"
       sodipodi:type="arc"
       sodipodi:cx="122.51572"
       sodipodi:cy="180.76245"
       sodipodi:rx="22.376513"
       sodipodi:ry="22.376789"
       sodipodi:start="3.0896866"
       sodipodi:end="3.0843633"
       sodipodi:open="true"
       sodipodi:arc-type="arc"
       d="m 100.16934,181.92342 a 22.376513,22.376789 0 0 1 21.15568,-23.50606 22.376513,22.376789 0 0 1 23.5339,21.12465 22.376513,22.376789 0 0 1 -21.09304,23.56228 22.376513,22.376789 0 0 1 -23.59004,-21.06193" /><path
       style="fill:none;stroke:#f8f8f2;stroke-width:7.6;stroke-linecap:butt;stroke-linejoin:miter;stroke-miterlimit:4;stroke-dasharray:none;stroke-opacity:1;marker-end:url(#Arrow1Lend)"
       d="m 229.74978,312.26555 c 0,0 -70.47226,124.47391 -45.30277,186.06496 33.94544,83.06627 286.37825,142.38015 286.37825,142.38015"
       id="path1936"
       sodipodi:nodetypes="csc" /><path
       style="fill:none;stroke:#6272a4;stroke-width:7.47266;stroke-linecap:butt;stroke-linejoin:miter;stroke-miterlimit:3.6;stroke-dasharray:none;stroke-dashoffset:0;stroke-opacity:1;marker-start:url(#CurveIn);marker-end:url(#CurveOut)"
       d="M 337.72013,94.829625 514.94403,358.06757"
       id="path2540" /><path
       id="path2540-0"
       d="M 586.26805,59.755011 763.49195,322.99296"
       style="fill:none;stroke:#6272a4;stroke-width:7.47266;stroke-linecap:butt;stroke-linejoin:miter;stroke-miterlimit:3.6;stroke-dasharray:none;stroke-dashoffset:0;stroke-opacity:1;marker-start:url(#CurveIn-9);marker-end:url(#CurveOut-5)" /></g></svg>
