<?xml version="1.0" encoding="UTF-8" standalone="no"?>
<svg
   xmlns:dc="http://purl.org/dc/elements/1.1/"
   xmlns:cc="http://creativecommons.org/ns#"
   xmlns:rdf="http://www.w3.org/1999/02/22-rdf-syntax-ns#"
   xmlns:svg="http://www.w3.org/2000/svg"
   xmlns="http://www.w3.org/2000/svg"
   xmlns:sodipodi="http://sodipodi.sourceforge.net/DTD/sodipodi-0.dtd"
   xmlns:inkscape="http://www.inkscape.org/namespaces/inkscape"
   width="1080"
   height="1080"
   viewBox="0 0 1080 1080"
   version="1.1"
   id="svg5"
   inkscape:version="1.0 (4035a4fb49, 2020-05-01)"
   sodipodi:docname="cells.svg"
   xml:space="preserve"
   inkscape:export-filename="C:\Users\joecs\Documents\joe-starr\static\DiscMorse\Cells.png"
   inkscape:export-xdpi="96"
   inkscape:export-ydpi="96"><metadata
     id="metadata1192"><rdf:RDF><cc:Work
         rdf:about=""><dc:format>image/svg+xml</dc:format><dc:type
           rdf:resource="http://purl.org/dc/dcmitype/StillImage" /></cc:Work></rdf:RDF></metadata><sodipodi:namedview
     id="namedview7"
     pagecolor="#505050"
     bordercolor="#eeeeee"
     borderopacity="1"
     inkscape:showpageshadow="0"
     inkscape:pageopacity="0"
     inkscape:pagecheckerboard="0"
     inkscape:deskcolor="#505050"
     inkscape:document-units="px"
     showgrid="false"
     inkscape:zoom="0.30903185"
     inkscape:cx="-476.49473"
     inkscape:cy="262.80728"
     inkscape:window-width="1897"
     inkscape:window-height="1108"
     inkscape:window-x="0"
     inkscape:window-y="0"
     inkscape:window-maximized="0"
     inkscape:current-layer="layer1"
     inkscape:document-rotation="0" /><defs
     id="defs2"><marker
       inkscape:isstock="true"
       style="overflow:visible"
       id="CurveOut"
       refX="0.0"
       refY="0.0"
       orient="auto"
       inkscape:stockid="CurveOut"><path
         transform="scale(0.6)"
         style="fill:none;fill-rule:evenodd;stroke:#6272a4;stroke-width:1pt;stroke-opacity:1"
         d="M -5.4129913,-5.0456926 C -2.6529913,-5.0456926 -0.41299131,-2.8056926 -0.41299131,-0.045692580 C -0.41299131,2.7143074 -2.6529913,4.9543074 -5.4129913,4.9543074"
         id="path1108" /></marker><marker
       inkscape:isstock="true"
       style="overflow:visible"
       id="CurveIn"
       refX="0.0"
       refY="0.0"
       orient="auto"
       inkscape:stockid="CurveIn"><path
         transform="scale(0.6)"
         style="fill-rule:evenodd;stroke:#6272a4;stroke-width:1pt;fill:none;stroke-opacity:1"
         d="M 4.6254930,-5.0456926 C 1.8654930,-5.0456926 -0.37450702,-2.8056926 -0.37450702,-0.045692580 C -0.37450702,2.7143074 1.8654930,4.9543074 4.6254930,4.9543074"
         id="path1105" /></marker><marker
       inkscape:isstock="true"
       style="overflow:visible"
       id="marker1449"
       refX="0.0"
       refY="0.0"
       orient="auto"
       inkscape:stockid="DotM"><path
         transform="scale(0.4) translate(7.4, 1)"
         style="fill-rule:evenodd;stroke:#000000;stroke-width:1pt;stroke-opacity:1;fill:#000000;fill-opacity:1"
         d="M -2.5,-1.0 C -2.5,1.7600000 -4.7400000,4.0 -7.5,4.0 C -10.260000,4.0 -12.5,1.7600000 -12.5,-1.0 C -12.5,-3.7600000 -10.260000,-6.0 -7.5,-6.0 C -4.7400000,-6.0 -2.5,-3.7600000 -2.5,-1.0 z "
         id="path1447" /></marker><marker
       inkscape:isstock="true"
       style="overflow:visible"
       id="marker1367"
       refX="0.0"
       refY="0.0"
       orient="auto"
       inkscape:stockid="DotM"><path
         transform="scale(0.4) translate(7.4, 1)"
         style="fill-rule:evenodd;stroke:#000000;stroke-width:1pt;stroke-opacity:1;fill:#000000;fill-opacity:1"
         d="M -2.5,-1.0 C -2.5,1.7600000 -4.7400000,4.0 -7.5,4.0 C -10.260000,4.0 -12.5,1.7600000 -12.5,-1.0 C -12.5,-3.7600000 -10.260000,-6.0 -7.5,-6.0 C -4.7400000,-6.0 -2.5,-3.7600000 -2.5,-1.0 z "
         id="path1365" /></marker><marker
       inkscape:stockid="DotM"
       orient="auto"
       refY="0.0"
       refX="0.0"
       id="marker1215"
       style="overflow:visible"
       inkscape:isstock="true"><path
         id="path1213"
         d="M -2.5,-1.0 C -2.5,1.7600000 -4.7400000,4.0 -7.5,4.0 C -10.260000,4.0 -12.5,1.7600000 -12.5,-1.0 C -12.5,-3.7600000 -10.260000,-6.0 -7.5,-6.0 C -4.7400000,-6.0 -2.5,-3.7600000 -2.5,-1.0 z "
         style="fill-rule:evenodd;stroke:#000000;stroke-width:1pt;stroke-opacity:1;fill:#000000;fill-opacity:1"
         transform="scale(0.4) translate(7.4, 1)" /></marker><marker
       inkscape:isstock="true"
       style="overflow:visible"
       id="marker1093"
       refX="0.0"
       refY="0.0"
       orient="auto"
       inkscape:stockid="DotM"><path
         transform="scale(0.4) translate(7.4, 1)"
         style="fill-rule:evenodd;stroke:#000000;stroke-width:1pt;stroke-opacity:1;fill:#000000;fill-opacity:1"
         d="M -2.5,-1.0 C -2.5,1.7600000 -4.7400000,4.0 -7.5,4.0 C -10.260000,4.0 -12.5,1.7600000 -12.5,-1.0 C -12.5,-3.7600000 -10.260000,-6.0 -7.5,-6.0 C -4.7400000,-6.0 -2.5,-3.7600000 -2.5,-1.0 z "
         id="path1091" /></marker><marker
       inkscape:stockid="DotM"
       orient="auto"
       refY="0.0"
       refX="0.0"
       id="marker6160"
       style="overflow:visible"
       inkscape:isstock="true"><path
         id="path6158"
         d="M -2.5,-1.0 C -2.5,1.7600000 -4.7400000,4.0 -7.5,4.0 C -10.260000,4.0 -12.5,1.7600000 -12.5,-1.0 C -12.5,-3.7600000 -10.260000,-6.0 -7.5,-6.0 C -4.7400000,-6.0 -2.5,-3.7600000 -2.5,-1.0 z "
         style="fill-rule:evenodd;stroke:#000000;stroke-width:1pt;stroke-opacity:1;fill:#000000;fill-opacity:1"
         transform="scale(0.4) translate(7.4, 1)" /></marker><marker
       inkscape:isstock="true"
       style="overflow:visible"
       id="marker5984"
       refX="0.0"
       refY="0.0"
       orient="auto"
       inkscape:stockid="DotM"><path
         transform="scale(0.4) translate(7.4, 1)"
         style="fill-rule:evenodd;stroke:#000000;stroke-width:1pt;stroke-opacity:1;fill:#000000;fill-opacity:1"
         d="M -2.5,-1.0 C -2.5,1.7600000 -4.7400000,4.0 -7.5,4.0 C -10.260000,4.0 -12.5,1.7600000 -12.5,-1.0 C -12.5,-3.7600000 -10.260000,-6.0 -7.5,-6.0 C -4.7400000,-6.0 -2.5,-3.7600000 -2.5,-1.0 z "
         id="path5982" /></marker><marker
       inkscape:stockid="DotM"
       orient="auto"
       refY="0.0"
       refX="0.0"
       id="marker5932"
       style="overflow:visible"
       inkscape:isstock="true"><path
         id="path5930"
         d="M -2.5,-1.0 C -2.5,1.7600000 -4.7400000,4.0 -7.5,4.0 C -10.260000,4.0 -12.5,1.7600000 -12.5,-1.0 C -12.5,-3.7600000 -10.260000,-6.0 -7.5,-6.0 C -4.7400000,-6.0 -2.5,-3.7600000 -2.5,-1.0 z "
         style="fill-rule:evenodd;stroke:#000000;stroke-width:1pt;stroke-opacity:1;fill:#000000;fill-opacity:1"
         transform="scale(0.4) translate(7.4, 1)" /></marker><marker
       inkscape:stockid="DotM"
       orient="auto"
       refY="0.0"
       refX="0.0"
       id="marker5256"
       style="overflow:visible"
       inkscape:isstock="true"><path
         id="path5254"
         d="M -2.5,-1.0 C -2.5,1.7600000 -4.7400000,4.0 -7.5,4.0 C -10.260000,4.0 -12.5,1.7600000 -12.5,-1.0 C -12.5,-3.7600000 -10.260000,-6.0 -7.5,-6.0 C -4.7400000,-6.0 -2.5,-3.7600000 -2.5,-1.0 z "
         style="fill-rule:evenodd;stroke:#000000;stroke-width:1pt;stroke-opacity:1;fill:#000000;fill-opacity:1"
         transform="scale(0.4) translate(7.4, 1)" /></marker><marker
       inkscape:isstock="true"
       style="overflow:visible"
       id="marker4870"
       refX="0.0"
       refY="0.0"
       orient="auto"
       inkscape:stockid="DotS"><path
         transform="scale(0.2) translate(7.4, 1)"
         style="fill-rule:evenodd;stroke:#000000;stroke-width:1pt;stroke-opacity:1;fill:#000000;fill-opacity:1"
         d="M -2.5,-1.0 C -2.5,1.7600000 -4.7400000,4.0 -7.5,4.0 C -10.260000,4.0 -12.5,1.7600000 -12.5,-1.0 C -12.5,-3.7600000 -10.260000,-6.0 -7.5,-6.0 C -4.7400000,-6.0 -2.5,-3.7600000 -2.5,-1.0 z "
         id="path4868" /></marker></defs><g
     inkscape:groupmode="layer"
     id="layer3"
     inkscape:label="2cells" /><g
     inkscape:groupmode="layer"
     id="layer4"
     inkscape:label="3 cells" /><g
     inkscape:groupmode="layer"
     id="layer2"
     inkscape:label="1cells" /><g
     inkscape:label="0cells"
     inkscape:groupmode="layer"
     id="layer1"><path
       sodipodi:arc-type="arc"
       sodipodi:open="true"
       sodipodi:end="3.0895512"
       sodipodi:start="0.012138833"
       sodipodi:ry="28.823664"
       sodipodi:rx="178.74921"
       sodipodi:cy="-718.0462"
       sodipodi:cx="-828.89825"
       sodipodi:type="arc"
       style="fill:none;fill-opacity:0.231373;stroke:#f1fa84;stroke-width:5.38798;stroke-linejoin:round;stroke-miterlimit:4;stroke-dasharray:5.38798, 5.38797999999999977;stroke-dashoffset:43.1039;stroke-opacity:1;paint-order:stroke markers fill"
       id="path1848-6-9"
       transform="matrix(-0.99990884,-0.01350232,0.05196722,-0.99864879,0,0)"
       d="m -650.16222,-717.69633 a 178.74921,28.823664 0 0 1 -175.16999,28.46805 178.74921,28.823664 0 0 1 -182.07329,-27.31858" /><circle
       style="fill:#ffb86c;fill-opacity:1;stroke:#ffb86c;stroke-width:4.72076;stroke-dasharray:none"
       id="path1534"
       cx="257.11066"
       cy="221.31352"
       r="32.639622" /><circle
       style="fill:#ff5555;fill-opacity:0.231373;stroke:#ff5554;stroke-width:16.103;stroke-linejoin:round;stroke-miterlimit:4;stroke-dasharray:16.103, 16.10300000000000153;stroke-dashoffset:128.824;stroke-opacity:1;paint-order:stroke markers fill"
       id="path1848"
       cx="282.96909"
       cy="724.17175"
       r="174.54871" /><ellipse
       cy="729.03638"
       cx="791.27014"
       id="path1848-0"
       style="fill:#f1fa8c;fill-opacity:0.231373;stroke:#f1fa8c;stroke-width:16.3426;stroke-linejoin:round;stroke-miterlimit:4;stroke-dasharray:16.3426, 16.3426;stroke-dashoffset:130.741;stroke-opacity:1;paint-order:stroke markers fill"
       rx="177.5751"
       ry="176.7171" /><path
       id="path1848-6"
       style="fill:none;fill-opacity:0.231373;stroke:#f1fa84;stroke-width:5.59379;stroke-linejoin:round;stroke-miterlimit:4;stroke-dasharray:5.59379, 5.59379;stroke-dashoffset:44.7503;stroke-opacity:1;paint-order:stroke markers fill"
       sodipodi:type="arc"
       sodipodi:cx="791.35992"
       sodipodi:cy="723.88959"
       sodipodi:rx="178.7957"
       sodipodi:ry="31.059614"
       sodipodi:start="0"
       sodipodi:end="3.0895512"
       sodipodi:open="true"
       sodipodi:arc-type="arc"
       d="m 970.15562,723.88959 a 178.7957,31.059614 0 0 1 -174.14383,31.0491 178.7957,31.059614 0 0 1 -183.2055,-29.43344" /><path
       id="path919"
       d="M 576.61018,130.42373 963.3051,432.45763"
       style="fill:none;stroke:#6272a4;stroke-width:23.5;stroke-linecap:butt;stroke-linejoin:miter;stroke-opacity:1;stroke-miterlimit:4;stroke-dasharray:none;marker-start:url(#CurveIn);marker-end:url(#CurveOut)" /></g></svg>
