<?xml version="1.0" encoding="UTF-8" standalone="no"?>
<!-- Created with Inkscape (http://www.inkscape.org/) -->

<svg
   width="1080"
   height="1080"
   viewBox="0 0 1080 1080"
   version="1.1"
   id="svg5"
   inkscape:version="1.2.1 (0f2f062aeb, 2022-09-21, custom)"
   sodipodi:docname="simplex.svg"
   xml:space="preserve"
   inkscape:export-filename="../5c6642f8/Simplex.png"
   inkscape:export-xdpi="96"
   inkscape:export-ydpi="96"
   xmlns:inkscape="http://www.inkscape.org/namespaces/inkscape"
   xmlns:sodipodi="http://sodipodi.sourceforge.net/DTD/sodipodi-0.dtd"
   xmlns="http://www.w3.org/2000/svg"
   xmlns:svg="http://www.w3.org/2000/svg"><sodipodi:namedview
     id="namedview7"
     pagecolor="#505050"
     bordercolor="#eeeeee"
     borderopacity="1"
     inkscape:showpageshadow="0"
     inkscape:pageopacity="0"
     inkscape:pagecheckerboard="0"
     inkscape:deskcolor="#505050"
     inkscape:document-units="px"
     showgrid="false"
     inkscape:zoom="1.2361274"
     inkscape:cx="468.39832"
     inkscape:cy="645.96901"
     inkscape:window-width="2793"
     inkscape:window-height="2058"
     inkscape:window-x="1080"
     inkscape:window-y="27"
     inkscape:window-maximized="0"
     inkscape:current-layer="layer1" /><defs
     id="defs2"><marker
       inkscape:isstock="true"
       style="overflow:visible"
       id="marker1449"
       refX="0.0"
       refY="0.0"
       orient="auto"
       inkscape:stockid="DotM"><path
         transform="scale(0.4) translate(7.4, 1)"
         style="fill-rule:evenodd;stroke:#000000;stroke-width:1pt;stroke-opacity:1;fill:#000000;fill-opacity:1"
         d="M -2.5,-1.0 C -2.5,1.7600000 -4.7400000,4.0 -7.5,4.0 C -10.260000,4.0 -12.5,1.7600000 -12.5,-1.0 C -12.5,-3.7600000 -10.260000,-6.0 -7.5,-6.0 C -4.7400000,-6.0 -2.5,-3.7600000 -2.5,-1.0 z "
         id="path1447" /></marker><marker
       inkscape:isstock="true"
       style="overflow:visible"
       id="marker1367"
       refX="0.0"
       refY="0.0"
       orient="auto"
       inkscape:stockid="DotM"><path
         transform="scale(0.4) translate(7.4, 1)"
         style="fill-rule:evenodd;stroke:#000000;stroke-width:1pt;stroke-opacity:1;fill:#000000;fill-opacity:1"
         d="M -2.5,-1.0 C -2.5,1.7600000 -4.7400000,4.0 -7.5,4.0 C -10.260000,4.0 -12.5,1.7600000 -12.5,-1.0 C -12.5,-3.7600000 -10.260000,-6.0 -7.5,-6.0 C -4.7400000,-6.0 -2.5,-3.7600000 -2.5,-1.0 z "
         id="path1365" /></marker><marker
       inkscape:stockid="DotM"
       orient="auto"
       refY="0.0"
       refX="0.0"
       id="marker1215"
       style="overflow:visible"
       inkscape:isstock="true"><path
         id="path1213"
         d="M -2.5,-1.0 C -2.5,1.7600000 -4.7400000,4.0 -7.5,4.0 C -10.260000,4.0 -12.5,1.7600000 -12.5,-1.0 C -12.5,-3.7600000 -10.260000,-6.0 -7.5,-6.0 C -4.7400000,-6.0 -2.5,-3.7600000 -2.5,-1.0 z "
         style="fill-rule:evenodd;stroke:#000000;stroke-width:1pt;stroke-opacity:1;fill:#000000;fill-opacity:1"
         transform="scale(0.4) translate(7.4, 1)" /></marker><marker
       inkscape:isstock="true"
       style="overflow:visible"
       id="marker1093"
       refX="0.0"
       refY="0.0"
       orient="auto"
       inkscape:stockid="DotM"><path
         transform="scale(0.4) translate(7.4, 1)"
         style="fill-rule:evenodd;stroke:#000000;stroke-width:1pt;stroke-opacity:1;fill:#000000;fill-opacity:1"
         d="M -2.5,-1.0 C -2.5,1.7600000 -4.7400000,4.0 -7.5,4.0 C -10.260000,4.0 -12.5,1.7600000 -12.5,-1.0 C -12.5,-3.7600000 -10.260000,-6.0 -7.5,-6.0 C -4.7400000,-6.0 -2.5,-3.7600000 -2.5,-1.0 z "
         id="path1091" /></marker><marker
       inkscape:stockid="DotM"
       orient="auto"
       refY="0.0"
       refX="0.0"
       id="marker6160"
       style="overflow:visible"
       inkscape:isstock="true"><path
         id="path6158"
         d="M -2.5,-1.0 C -2.5,1.7600000 -4.7400000,4.0 -7.5,4.0 C -10.260000,4.0 -12.5,1.7600000 -12.5,-1.0 C -12.5,-3.7600000 -10.260000,-6.0 -7.5,-6.0 C -4.7400000,-6.0 -2.5,-3.7600000 -2.5,-1.0 z "
         style="fill-rule:evenodd;stroke:#000000;stroke-width:1pt;stroke-opacity:1;fill:#000000;fill-opacity:1"
         transform="scale(0.4) translate(7.4, 1)" /></marker><marker
       inkscape:isstock="true"
       style="overflow:visible"
       id="marker5984"
       refX="0.0"
       refY="0.0"
       orient="auto"
       inkscape:stockid="DotM"><path
         transform="scale(0.4) translate(7.4, 1)"
         style="fill-rule:evenodd;stroke:#000000;stroke-width:1pt;stroke-opacity:1;fill:#000000;fill-opacity:1"
         d="M -2.5,-1.0 C -2.5,1.7600000 -4.7400000,4.0 -7.5,4.0 C -10.260000,4.0 -12.5,1.7600000 -12.5,-1.0 C -12.5,-3.7600000 -10.260000,-6.0 -7.5,-6.0 C -4.7400000,-6.0 -2.5,-3.7600000 -2.5,-1.0 z "
         id="path5982" /></marker><marker
       inkscape:stockid="DotM"
       orient="auto"
       refY="0.0"
       refX="0.0"
       id="marker5932"
       style="overflow:visible"
       inkscape:isstock="true"><path
         id="path5930"
         d="M -2.5,-1.0 C -2.5,1.7600000 -4.7400000,4.0 -7.5,4.0 C -10.260000,4.0 -12.5,1.7600000 -12.5,-1.0 C -12.5,-3.7600000 -10.260000,-6.0 -7.5,-6.0 C -4.7400000,-6.0 -2.5,-3.7600000 -2.5,-1.0 z "
         style="fill-rule:evenodd;stroke:#000000;stroke-width:1pt;stroke-opacity:1;fill:#000000;fill-opacity:1"
         transform="scale(0.4) translate(7.4, 1)" /></marker><marker
       inkscape:stockid="DotM"
       orient="auto"
       refY="0.0"
       refX="0.0"
       id="marker5256"
       style="overflow:visible"
       inkscape:isstock="true"><path
         id="path5254"
         d="M -2.5,-1.0 C -2.5,1.7600000 -4.7400000,4.0 -7.5,4.0 C -10.260000,4.0 -12.5,1.7600000 -12.5,-1.0 C -12.5,-3.7600000 -10.260000,-6.0 -7.5,-6.0 C -4.7400000,-6.0 -2.5,-3.7600000 -2.5,-1.0 z "
         style="fill-rule:evenodd;stroke:#000000;stroke-width:1pt;stroke-opacity:1;fill:#000000;fill-opacity:1"
         transform="scale(0.4) translate(7.4, 1)" /></marker><marker
       inkscape:isstock="true"
       style="overflow:visible"
       id="marker4870"
       refX="0.0"
       refY="0.0"
       orient="auto"
       inkscape:stockid="DotS"><path
         transform="scale(0.2) translate(7.4, 1)"
         style="fill-rule:evenodd;stroke:#000000;stroke-width:1pt;stroke-opacity:1;fill:#000000;fill-opacity:1"
         d="M -2.5,-1.0 C -2.5,1.7600000 -4.7400000,4.0 -7.5,4.0 C -10.260000,4.0 -12.5,1.7600000 -12.5,-1.0 C -12.5,-3.7600000 -10.260000,-6.0 -7.5,-6.0 C -4.7400000,-6.0 -2.5,-3.7600000 -2.5,-1.0 z "
         id="path4868" /></marker></defs><g
     inkscape:groupmode="layer"
     id="layer3"
     inkscape:label="2cells" /><g
     inkscape:groupmode="layer"
     id="layer4"
     inkscape:label="3 cells" /><g
     inkscape:groupmode="layer"
     id="layer2"
     inkscape:label="1cells" /><g
     inkscape:label="0cells"
     inkscape:groupmode="layer"
     id="layer1"><circle
       style="fill:#ffb86c;fill-opacity:1;stroke:#ffb86c;stroke-width:4.72076;stroke-dasharray:none"
       id="path1534"
       cx="281.56342"
       cy="208.15675"
       r="32.639622" /><g
       id="g10055"
       transform="rotate(30,704.96269,293.47135)"><g
         id="g8381"><rect
           style="fill:#6272a4;fill-opacity:1;stroke:#6272a4;stroke-width:4.833;stroke-dasharray:none;stroke-opacity:1"
           id="rect1825"
           width="412.3356"
           height="23.733389"
           x="558.7605"
           y="149.76324" /><circle
           style="fill:#ffb86c;fill-opacity:1;stroke:#ffb86c;stroke-width:3.91541;stroke-dasharray:none"
           id="path1534-3"
           cx="554.55267"
           cy="161.62994"
           r="27.071392" /><circle
           style="fill:#ffb86c;fill-opacity:1;stroke:#ffb86c;stroke-width:3.91541;stroke-dasharray:none"
           id="path1534-3-6"
           cx="970.82635"
           cy="161.62994"
           r="27.071392" /></g></g><g
       id="g8353"
       transform="translate(17.719078,6.4740961)"><path
         style="fill:#ff5555;fill-opacity:0.180392;stroke:none;stroke-width:1px;stroke-linecap:butt;stroke-linejoin:miter;stroke-opacity:1"
         d="M 259.33584,556.83452 63.6691,905.31231 464.96717,903.96849 Z"
         id="path2875" /><rect
         style="fill:#6272a4;fill-opacity:1;stroke:#6272a4;stroke-width:4.833;stroke-dasharray:none;stroke-opacity:1"
         id="rect1825-7"
         width="412.3356"
         height="23.733389"
         x="56.612671"
         y="897.00677" /><rect
         style="fill:#6272a4;fill-opacity:1;stroke:#6272a4;stroke-width:4.833;stroke-dasharray:none;stroke-opacity:1"
         id="rect1825-7-6"
         width="412.3356"
         height="23.733389"
         x="-771.30743"
         y="484.84885"
         transform="rotate(-60.568553)" /><rect
         style="fill:#6272a4;fill-opacity:1;stroke:#6272a4;stroke-width:4.833;stroke-dasharray:none;stroke-opacity:1"
         id="rect1825-7-6-2"
         width="412.3356"
         height="23.733389"
         x="-1027.2146"
         y="32.806927"
         transform="matrix(-0.49138185,-0.87094425,-0.87094425,0.49138185,0,0)" /><circle
         style="fill:#ffb86c;fill-opacity:1;stroke:#ffb86c;stroke-width:3.91541;stroke-dasharray:none"
         id="path1534-3-5"
         cx="66.651566"
         cy="902.02185"
         r="27.071392" /><circle
         style="fill:#ffb86c;fill-opacity:1;stroke:#ffb86c;stroke-width:3.91541;stroke-dasharray:none"
         id="path1534-3-5-5"
         cx="260.32059"
         cy="558.41852"
         r="27.071392" /><circle
         style="fill:#ffb86c;fill-opacity:1;stroke:#ffb86c;stroke-width:3.91541;stroke-dasharray:none"
         id="path1534-3-6-3"
         cx="461.03711"
         cy="904.45984"
         r="27.071392" /></g><g
       id="g8375"
       transform="translate(15.859961,6.4740961)"><path
         style="fill:#f1fa8c;fill-opacity:0.180392;stroke:none;stroke-width:1px;stroke-linecap:butt;stroke-linejoin:miter;stroke-opacity:1"
         d="M 812.57683,477.22069 776.4744,978.04672 990.7191,887.98451 Z"
         id="path8116" /><path
         style="fill:#f1fa8c;fill-opacity:0.180392;stroke:none;stroke-width:1px;stroke-linecap:butt;stroke-linejoin:miter;stroke-opacity:1"
         d="m 621.81244,880.98831 152.1108,99.85379 36.72851,-506.81821 z"
         id="path8288" /><path
         style="fill:#f1fa8c;fill-opacity:0.180392;stroke:none;stroke-width:1px;stroke-linecap:butt;stroke-linejoin:miter;stroke-opacity:1"
         d="m 621.51559,882.08663 369.13675,2.91517 -212.17169,93.466 z"
         id="path8290" /><path
         style="fill:#f1fa8c;fill-opacity:0.180392;stroke:none;stroke-width:1px;stroke-linecap:butt;stroke-linejoin:miter;stroke-opacity:1"
         d="m 808.99666,483.14721 -188.71428,397.60725 370.58504,3.67279 z"
         id="path8292" /><g
         id="g1321"
         transform="matrix(15.316008,0,0,16.649977,541.19383,376.13849)"><path
           sodipodi:nodetypes="cccc"
           inkscape:connector-curvature="0"
           id="path1118"
           d="m 5.1931854,30.288063 24.0897376,0.410388 -13.987085,5.49396 z"
           style="display:inline;fill:none;fill-opacity:0.533546;stroke:#000000;stroke-width:0.480665;stroke-linecap:butt;stroke-linejoin:miter;stroke-miterlimit:4;stroke-dasharray:0, 5.28731;stroke-dashoffset:0;stroke-opacity:1" /><path
           sodipodi:nodetypes="ccccccc"
           inkscape:connector-curvature="0"
           id="path1104"
           d="M 17.529451,5.9024664 5.1322532,30.28132 15.252525,36.22067 Z M 15.252525,36.221879 29.281141,30.699154 17.532088,5.9029524"
           style="fill:none;fill-opacity:1;stroke:#6272a4;stroke-width:0.481422;stroke-linecap:round;stroke-linejoin:round;stroke-miterlimit:4;stroke-dasharray:none;stroke-opacity:1" /><path
           sodipodi:nodetypes="cc"
           inkscape:connector-curvature="0"
           id="path1109"
           d="M 5.0992988,30.243001 28.634331,30.500156"
           style="fill:none;fill-opacity:1;stroke:#6272a4;stroke-width:0.480665;stroke-linecap:butt;stroke-linejoin:miter;stroke-miterlimit:4;stroke-dasharray:1.44199, 0.480665;stroke-dashoffset:0;stroke-opacity:1" /></g><circle
         style="fill:#ffb86c;fill-opacity:1;stroke:#ffb86c;stroke-width:2.2263;stroke-dasharray:none"
         id="path1534-3-6-3-1"
         cx="773.7973"
         cy="978.1123"
         r="15.392784" /><circle
         style="fill:#ffb86c;fill-opacity:1;stroke:#ffb86c;stroke-width:1.76312;stroke-dasharray:none"
         id="path1534-3-6-3-1-2"
         cx="621.56036"
         cy="877.41589"
         r="12.190316" /><circle
         style="fill:#ffb86c;fill-opacity:1;stroke:#ffb86c;stroke-width:1.76312;stroke-dasharray:none"
         id="path1534-3-6-3-1-2-7"
         cx="988.47229"
         cy="886.18848"
         r="12.190316" /><circle
         style="fill:#ffb86c;fill-opacity:1;stroke:#ffb86c;stroke-width:1.76312;stroke-dasharray:none"
         id="path1534-3-6-3-1-2-7-0"
         cx="809.85815"
         cy="477.80801"
         r="12.190316" /></g></g></svg>
