<?xml version="1.0" encoding="UTF-8" standalone="no"?>
<svg
   xmlns:dc="http://purl.org/dc/elements/1.1/"
   xmlns:cc="http://creativecommons.org/ns#"
   xmlns:rdf="http://www.w3.org/1999/02/22-rdf-syntax-ns#"
   xmlns:svg="http://www.w3.org/2000/svg"
   xmlns="http://www.w3.org/2000/svg"
   xmlns:sodipodi="http://sodipodi.sourceforge.net/DTD/sodipodi-0.dtd"
   xmlns:inkscape="http://www.inkscape.org/namespaces/inkscape"
   inkscape:export-ydpi="96"
   inkscape:export-xdpi="96"
   inkscape:export-filename="C:\Users\joecs\Documents\joe-starr\static\DiscMorse\sphere.png"
   xml:space="preserve"
   sodipodi:docname="sphere.svg"
   inkscape:version="1.0 (4035a4fb49, 2020-05-01)"
   id="svg5"
   version="1.1"
   viewBox="0 0 1080 1080"
   height="1080"
   width="1080"><metadata
     id="metadata1192"><rdf:RDF><cc:Work
         rdf:about=""><dc:format>image/svg+xml</dc:format><dc:type
           rdf:resource="http://purl.org/dc/dcmitype/StillImage" /><dc:title /></cc:Work></rdf:RDF></metadata><sodipodi:namedview
     inkscape:document-rotation="0"
     inkscape:current-layer="layer1"
     inkscape:window-maximized="0"
     inkscape:window-y="0"
     inkscape:window-x="0"
     inkscape:window-height="1144"
     inkscape:window-width="1898"
     inkscape:cy="639.15673"
     inkscape:cx="-1224.5171"
     inkscape:zoom="0.30903185"
     showgrid="false"
     inkscape:document-units="px"
     inkscape:deskcolor="#505050"
     inkscape:pagecheckerboard="0"
     inkscape:pageopacity="0"
     inkscape:showpageshadow="0"
     borderopacity="1"
     bordercolor="#eeeeee"
     pagecolor="#505050"
     id="namedview7" /><defs
     id="defs2"><marker
       inkscape:isstock="true"
       style="overflow:visible;"
       id="Arrow1Lend"
       refX="0.0"
       refY="0.0"
       orient="auto"
       inkscape:stockid="Arrow1Lend"><path
         transform="scale(0.8) rotate(180) translate(12.5,0)"
         style="fill-rule:evenodd;stroke:#f8f8f2;stroke-width:1pt;stroke-opacity:1;fill:#f8f8f2;fill-opacity:1"
         d="M 0.0,0.0 L 5.0,-5.0 L -12.5,0.0 L 5.0,5.0 L 0.0,0.0 z "
         id="path1086" /></marker><marker
       inkscape:stockid="DotM"
       orient="auto"
       refY="0.0"
       refX="0.0"
       id="marker1449"
       style="overflow:visible"
       inkscape:isstock="true"><path
         id="path1447"
         d="M -2.5,-1.0 C -2.5,1.7600000 -4.7400000,4.0 -7.5,4.0 C -10.260000,4.0 -12.5,1.7600000 -12.5,-1.0 C -12.5,-3.7600000 -10.260000,-6.0 -7.5,-6.0 C -4.7400000,-6.0 -2.5,-3.7600000 -2.5,-1.0 z "
         style="fill-rule:evenodd;stroke:#000000;stroke-width:1pt;stroke-opacity:1;fill:#000000;fill-opacity:1"
         transform="scale(0.4) translate(7.4, 1)" /></marker><marker
       inkscape:stockid="DotM"
       orient="auto"
       refY="0.0"
       refX="0.0"
       id="marker1367"
       style="overflow:visible"
       inkscape:isstock="true"><path
         id="path1365"
         d="M -2.5,-1.0 C -2.5,1.7600000 -4.7400000,4.0 -7.5,4.0 C -10.260000,4.0 -12.5,1.7600000 -12.5,-1.0 C -12.5,-3.7600000 -10.260000,-6.0 -7.5,-6.0 C -4.7400000,-6.0 -2.5,-3.7600000 -2.5,-1.0 z "
         style="fill-rule:evenodd;stroke:#000000;stroke-width:1pt;stroke-opacity:1;fill:#000000;fill-opacity:1"
         transform="scale(0.4) translate(7.4, 1)" /></marker><marker
       inkscape:isstock="true"
       style="overflow:visible"
       id="marker1215"
       refX="0.0"
       refY="0.0"
       orient="auto"
       inkscape:stockid="DotM"><path
         transform="scale(0.4) translate(7.4, 1)"
         style="fill-rule:evenodd;stroke:#000000;stroke-width:1pt;stroke-opacity:1;fill:#000000;fill-opacity:1"
         d="M -2.5,-1.0 C -2.5,1.7600000 -4.7400000,4.0 -7.5,4.0 C -10.260000,4.0 -12.5,1.7600000 -12.5,-1.0 C -12.5,-3.7600000 -10.260000,-6.0 -7.5,-6.0 C -4.7400000,-6.0 -2.5,-3.7600000 -2.5,-1.0 z "
         id="path1213" /></marker><marker
       inkscape:stockid="DotM"
       orient="auto"
       refY="0.0"
       refX="0.0"
       id="marker1093"
       style="overflow:visible"
       inkscape:isstock="true"><path
         id="path1091"
         d="M -2.5,-1.0 C -2.5,1.7600000 -4.7400000,4.0 -7.5,4.0 C -10.260000,4.0 -12.5,1.7600000 -12.5,-1.0 C -12.5,-3.7600000 -10.260000,-6.0 -7.5,-6.0 C -4.7400000,-6.0 -2.5,-3.7600000 -2.5,-1.0 z "
         style="fill-rule:evenodd;stroke:#000000;stroke-width:1pt;stroke-opacity:1;fill:#000000;fill-opacity:1"
         transform="scale(0.4) translate(7.4, 1)" /></marker><marker
       inkscape:isstock="true"
       style="overflow:visible"
       id="marker6160"
       refX="0.0"
       refY="0.0"
       orient="auto"
       inkscape:stockid="DotM"><path
         transform="scale(0.4) translate(7.4, 1)"
         style="fill-rule:evenodd;stroke:#000000;stroke-width:1pt;stroke-opacity:1;fill:#000000;fill-opacity:1"
         d="M -2.5,-1.0 C -2.5,1.7600000 -4.7400000,4.0 -7.5,4.0 C -10.260000,4.0 -12.5,1.7600000 -12.5,-1.0 C -12.5,-3.7600000 -10.260000,-6.0 -7.5,-6.0 C -4.7400000,-6.0 -2.5,-3.7600000 -2.5,-1.0 z "
         id="path6158" /></marker><marker
       inkscape:stockid="DotM"
       orient="auto"
       refY="0.0"
       refX="0.0"
       id="marker5984"
       style="overflow:visible"
       inkscape:isstock="true"><path
         id="path5982"
         d="M -2.5,-1.0 C -2.5,1.7600000 -4.7400000,4.0 -7.5,4.0 C -10.260000,4.0 -12.5,1.7600000 -12.5,-1.0 C -12.5,-3.7600000 -10.260000,-6.0 -7.5,-6.0 C -4.7400000,-6.0 -2.5,-3.7600000 -2.5,-1.0 z "
         style="fill-rule:evenodd;stroke:#000000;stroke-width:1pt;stroke-opacity:1;fill:#000000;fill-opacity:1"
         transform="scale(0.4) translate(7.4, 1)" /></marker><marker
       inkscape:isstock="true"
       style="overflow:visible"
       id="marker5932"
       refX="0.0"
       refY="0.0"
       orient="auto"
       inkscape:stockid="DotM"><path
         transform="scale(0.4) translate(7.4, 1)"
         style="fill-rule:evenodd;stroke:#000000;stroke-width:1pt;stroke-opacity:1;fill:#000000;fill-opacity:1"
         d="M -2.5,-1.0 C -2.5,1.7600000 -4.7400000,4.0 -7.5,4.0 C -10.260000,4.0 -12.5,1.7600000 -12.5,-1.0 C -12.5,-3.7600000 -10.260000,-6.0 -7.5,-6.0 C -4.7400000,-6.0 -2.5,-3.7600000 -2.5,-1.0 z "
         id="path5930" /></marker><marker
       inkscape:isstock="true"
       style="overflow:visible"
       id="marker5256"
       refX="0.0"
       refY="0.0"
       orient="auto"
       inkscape:stockid="DotM"><path
         transform="scale(0.4) translate(7.4, 1)"
         style="fill-rule:evenodd;stroke:#000000;stroke-width:1pt;stroke-opacity:1;fill:#000000;fill-opacity:1"
         d="M -2.5,-1.0 C -2.5,1.7600000 -4.7400000,4.0 -7.5,4.0 C -10.260000,4.0 -12.5,1.7600000 -12.5,-1.0 C -12.5,-3.7600000 -10.260000,-6.0 -7.5,-6.0 C -4.7400000,-6.0 -2.5,-3.7600000 -2.5,-1.0 z "
         id="path5254" /></marker><marker
       inkscape:stockid="DotS"
       orient="auto"
       refY="0.0"
       refX="0.0"
       id="marker4870"
       style="overflow:visible"
       inkscape:isstock="true"><path
         id="path4868"
         d="M -2.5,-1.0 C -2.5,1.7600000 -4.7400000,4.0 -7.5,4.0 C -10.260000,4.0 -12.5,1.7600000 -12.5,-1.0 C -12.5,-3.7600000 -10.260000,-6.0 -7.5,-6.0 C -4.7400000,-6.0 -2.5,-3.7600000 -2.5,-1.0 z "
         style="fill-rule:evenodd;stroke:#000000;stroke-width:1pt;stroke-opacity:1;fill:#000000;fill-opacity:1"
         transform="scale(0.2) translate(7.4, 1)" /></marker><marker
       inkscape:stockid="CurveIn"
       orient="auto"
       refY="0"
       refX="0"
       id="CurveIn"
       style="overflow:visible"
       inkscape:isstock="true"><path
         id="path1105"
         d="m 4.625493,-5.0456926 c -2.76,0 -5.00000002,2.24 -5.00000002,5.00000002 0,2.75999998 2.24000002,4.99999998 5.00000002,4.99999998"
         style="fill:none;fill-rule:evenodd;stroke:#6272a4;stroke-width:1pt;stroke-opacity:1"
         transform="scale(0.6)" /></marker><marker
       inkscape:stockid="CurveOut"
       orient="auto"
       refY="0"
       refX="0"
       id="CurveOut"
       style="overflow:visible"
       inkscape:isstock="true"><path
         id="path1108"
         d="m -5.4129913,-5.0456926 c 2.76,0 4.99999999,2.24 4.99999999,5.00000002 0,2.75999998 -2.23999999,4.99999998 -4.99999999,4.99999998"
         style="fill:none;fill-rule:evenodd;stroke:#6272a4;stroke-width:1pt;stroke-opacity:1"
         transform="scale(0.6)" /></marker></defs><g
     inkscape:label="2cells"
     id="layer3"
     inkscape:groupmode="layer" /><g
     inkscape:label="3 cells"
     id="layer4"
     inkscape:groupmode="layer" /><g
     inkscape:label="1cells"
     id="layer2"
     inkscape:groupmode="layer" /><g
     id="layer1"
     inkscape:groupmode="layer"
     inkscape:label="0cells"><path
       d="m -620.19634,-705.67326 a 178.74921,28.823664 0 0 1 -175.16999,28.46805 178.74921,28.823664 0 0 1 -182.07325,-27.31857"
       transform="matrix(-0.99990884,-0.01350232,0.05196722,-0.99864879,0,0)"
       id="path1848-6-9"
       style="fill:none;fill-opacity:0.23137255;stroke:#ff5555;stroke-width:5.38798;stroke-linejoin:round;stroke-miterlimit:4;stroke-dasharray:5.38798, 5.38797999999999977;stroke-dashoffset:43.1039;stroke-opacity:1;paint-order:stroke markers fill"
       sodipodi:type="arc"
       sodipodi:cx="-798.93237"
       sodipodi:cy="-706.02313"
       sodipodi:rx="178.74921"
       sodipodi:ry="28.823664"
       sodipodi:start="0.012138833"
       sodipodi:end="3.0895512"
       sodipodi:open="true"
       sodipodi:arc-type="arc" /><circle
       r="32.639622"
       cy="373.64789"
       cx="186.58586"
       id="path1534"
       style="fill:#ffb86c;fill-opacity:1;stroke:#ffb86c;stroke-width:4.72076;stroke-dasharray:none" /><circle
       r="174.54871"
       cy="217.52309"
       cx="532.78326"
       id="path1848"
       style="fill:#ff5555;fill-opacity:0.231373;stroke:#ff5554;stroke-width:16.103;stroke-linejoin:round;stroke-miterlimit:4;stroke-dasharray:16.103, 16.103;stroke-dashoffset:128.824;stroke-opacity:1;paint-order:stroke markers fill" /><ellipse
       ry="176.7171"
       rx="177.5751"
       style="fill:#ff5555;fill-opacity:0.231373;stroke:#ff5555;stroke-width:16.34300041;stroke-linejoin:round;stroke-miterlimit:4;stroke-dasharray:none;stroke-dashoffset:130.74419836;stroke-opacity:1;paint-order:stroke markers fill"
       id="path1848-0"
       cx="760.31384"
       cy="706.91724" /><path
       d="M 940.81731,711.47815 A 178.7957,31.059614 0 0 1 766.67348,742.52725 178.7957,31.059614 0 0 1 583.46797,713.09381"
       sodipodi:arc-type="arc"
       sodipodi:open="true"
       sodipodi:end="3.0895512"
       sodipodi:start="0"
       sodipodi:ry="31.059614"
       sodipodi:rx="178.7957"
       sodipodi:cy="711.47815"
       sodipodi:cx="762.02161"
       sodipodi:type="arc"
       style="fill:none;fill-opacity:0.23137255;stroke:#ff5555;stroke-width:5.59379005;stroke-linejoin:round;stroke-miterlimit:4;stroke-dasharray:none;stroke-dashoffset:44.7503;stroke-opacity:1;paint-order:stroke markers fill"
       id="path1848-6" /><circle
       style="fill:#ffb86c;fill-opacity:1;stroke:#ffb86c;stroke-width:2.56041;stroke-dasharray:none"
       id="path1534-1"
       cx="578.89832"
       cy="709.32202"
       r="17.702847" /><path
       sodipodi:nodetypes="czzc"
       id="path1081"
       d="m 363.35362,383.04261 c 0,0 50.05988,60.4658 42.52922,99.2454 -7.53066,38.7796 -116.91346,26.17971 -68.55123,77.85684 48.36222,51.67713 198.09213,135.44838 198.09213,135.44838"
       style="fill:none;stroke:#f8f8f2;stroke-width:11.4;stroke-linecap:butt;stroke-linejoin:miter;stroke-miterlimit:4;stroke-dasharray:none;stroke-opacity:1;marker-end:url(#Arrow1Lend)" /></g></svg>
